# xmcd
#
# Track frame offsets:
#	150
#	10968
#	21218
#	32833
#	44618
#	55640
#	67075
#	77078
#	88738
#	99223
#	110918
#	123238
#	133163
#	142803
#	156008
#	167183
#	176743
#	188508
#	200755
#	213078
#	222545
#	233353
#	245730
#
# Disc length: 3423 seconds
#
# Revision: 1
# Processed by: cddbd v1.4PL0 Copyright (c) Steve Scherf et al.
# Submitted via: audiograbber 1.81.02
#
DISCID=460d5d17
DTITLE=Louis Innis - Hop, Skip and Jump Country Style
DYEAR=1900
DGENRE=Country
TTITLE0=Stomp That Thing
TTITLE1=There's A Red Hot Fire In the Old Locomotive
TTITLE2=My Dreamboat Struck A Snag
TTITLE3=I've Got A Red Hot Love
TTITLE4=Honky-Tonk Man
TTITLE5=What A Way To Die
TTITLE6=I Grabbed For the Engine (And Caught the Caboose)
TTITLE7=Whammy Bammy Buzzard Goozer
TTITLE8=Jug Band Boogie
TTITLE9=Good Morning Judge
TTITLE10=Sing Your Song Baby
TTITLE11=She Rurn't It
TTITLE12=I Ain't Got No Pot
TTITLE13=Oh Babe
TTITLE14=The Kissing Chain
TTITLE15=Let's Make Up Tonight Honey
TTITLE16=Hearts Of Stone
TTITLE17=She's Mean To Me
TTITLE18=I Thought She Was A Local (But She Was A Fast Express)
TTITLE19=You've Got It
TTITLE20=I Got A Round Trip Ticket
TTITLE21=Mexican Joe
TTITLE22=(You Ain't Nothin' But A Female) Hound Dog
EXTD=
EXTT0=
EXTT1=
EXTT2=
EXTT3=
EXTT4=
EXTT5=
EXTT6=
EXTT7=
EXTT8=
EXTT9=
EXTT10=
EXTT11=
EXTT12=
EXTT13=
EXTT14=
EXTT15=
EXTT16=
EXTT17=
EXTT18=
EXTT19=
EXTT20=
EXTT21=
EXTT22=
PLAYORDER=
